<svg xmlns="http://www.w3.org/2000/svg" xmlns:xlink="http://www.w3.org/1999/xlink" width="2000" zoomAndPan="magnify" viewBox="0 0 1500 1499.999933" height="2000" preserveAspectRatio="xMidYMid meet" version="1.0"><defs><g/><clipPath id="f3940dd95e"><path d="M 234 641.503906 L 349 641.503906 L 349 858.253906 L 234 858.253906 Z M 234 641.503906 " clip-rule="nonzero"/></clipPath><clipPath id="57f7553a54"><rect x="0" width="641" y="0" height="151"/></clipPath></defs><g clip-path="url(#f3940dd95e)"><path fill="#2b317f" d="M 312.480469 641.503906 C 307.800781 641.503906 305.777344 644.453125 304.097656 647.464844 L 234.46875 770.949219 L 278.933594 852.519531 C 280.476562 855.300781 282.867188 858.488281 287.667969 858.488281 L 318.929688 858.488281 C 320.808594 858.488281 322.320312 857.777344 323.085938 856.453125 C 323.910156 855.113281 323.890625 853.351562 323.015625 851.617188 L 278.898438 771.050781 C 278.859375 770.984375 278.859375 770.90625 278.898438 770.839844 L 348.191406 648.332031 C 349.058594 646.601562 349.078125 644.839844 348.257812 643.503906 C 347.457031 642.210938 345.972656 641.503906 344.089844 641.503906 Z M 312.480469 641.503906 " fill-opacity="1" fill-rule="nonzero"/></g><path fill="#7447e1" d="M 180.980469 684.316406 C 179.097656 684.316406 177.617188 685.03125 176.824219 686.316406 C 176 687.65625 176.023438 689.417969 176.890625 691.15625 L 198.191406 727.6875 C 198.226562 727.757812 198.226562 727.828125 198.191406 727.902344 L 164.847656 786.621094 C 163.980469 788.351562 163.96875 790.113281 164.796875 791.453125 C 165.59375 792.742188 167.066406 793.453125 168.953125 793.453125 L 200.328125 793.453125 C 205.007812 793.453125 207.121094 790.375 208.722656 787.488281 L 242.625 727.796875 C 242.488281 727.582031 221.019531 690.292969 221.019531 690.292969 C 219.46875 687.511719 217.074219 684.316406 212.273438 684.316406 Z M 180.980469 684.316406 " fill-opacity="1" fill-rule="nonzero"/><g transform="matrix(1, 0, 0, 1, 349, 673)"><g clip-path="url(#57f7553a54)"><g fill="#191919" fill-opacity="1"><g transform="translate(0.813626, 113.283955)"><g><path d="M 60.84375 -75.328125 L 60.84375 -60.625 L 40.890625 -60.625 L 40.890625 0 L 22.53125 0 L 22.53125 -60.625 L 2.578125 -60.625 L 2.578125 -75.328125 Z M 60.84375 -75.328125 "/></g></g></g><g fill="#191919" fill-opacity="1"><g transform="translate(71.955073, 113.283955)"><g><path d="M 53.546875 -13.3125 L 25.4375 -13.3125 L 20.921875 0 L 1.71875 0 L 28.96875 -75.328125 L 50.21875 -75.328125 L 77.484375 0 L 58.0625 0 Z M 48.828125 -27.46875 L 39.484375 -55.046875 L 30.265625 -27.46875 Z M 48.828125 -27.46875 "/></g></g></g><g fill="#191919" fill-opacity="1"><g transform="translate(158.762004, 113.283955)"><g><path d="M 110.3125 -75.328125 L 90.671875 0 L 68.46875 0 L 56.453125 -49.578125 L 44 0 L 21.78125 0 L 2.6875 -75.328125 L 22.328125 -75.328125 L 33.15625 -20.5 L 46.578125 -75.328125 L 66.75 -75.328125 L 79.625 -20.5 L 90.578125 -75.328125 Z M 110.3125 -75.328125 "/></g></g></g><g fill="#191919" fill-opacity="1"><g transform="translate(279.36783, 113.283955)"><g><path d="M 53.546875 -13.3125 L 25.4375 -13.3125 L 20.921875 0 L 1.71875 0 L 28.96875 -75.328125 L 50.21875 -75.328125 L 77.484375 0 L 58.0625 0 Z M 48.828125 -27.46875 L 39.484375 -55.046875 L 30.265625 -27.46875 Z M 48.828125 -27.46875 "/></g></g></g><g fill="#191919" fill-opacity="1"><g transform="translate(366.174761, 113.283955)"><g><path d="M 55.6875 -75.328125 L 55.6875 -60.625 L 25 -60.625 L 25 -44.75 L 47.96875 -44.75 L 47.96875 -30.484375 L 25 -30.484375 L 25 0 L 6.65625 0 L 6.65625 -75.328125 Z M 55.6875 -75.328125 "/></g></g></g><g fill="#191919" fill-opacity="1"><g transform="translate(432.595083, 113.283955)"><g><path d="M 24.6875 -75.328125 L 24.6875 -30.265625 C 24.6875 -25.753906 25.789062 -22.28125 28 -19.84375 C 30.21875 -17.414062 33.476562 -16.203125 37.78125 -16.203125 C 42.070312 -16.203125 45.359375 -17.414062 47.640625 -19.84375 C 49.929688 -22.28125 51.078125 -25.753906 51.078125 -30.265625 L 51.078125 -75.328125 L 69.4375 -75.328125 L 69.4375 -30.375 C 69.4375 -23.644531 68.003906 -17.953125 65.140625 -13.296875 C 62.273438 -8.648438 58.425781 -5.144531 53.59375 -2.78125 C 48.769531 -0.425781 43.390625 0.75 37.453125 0.75 C 31.515625 0.75 26.203125 -0.410156 21.515625 -2.734375 C 16.828125 -5.054688 13.125 -8.5625 10.40625 -13.25 C 7.6875 -17.9375 6.328125 -23.644531 6.328125 -30.375 L 6.328125 -75.328125 Z M 24.6875 -75.328125 "/></g></g></g><g fill="#191919" fill-opacity="1"><g transform="translate(515.968478, 113.283955)"><g><path d="M 60.3125 12.875 L 50.65625 -0.109375 C 47.789062 0.460938 45 0.75 42.28125 0.75 C 35.195312 0.75 28.703125 -0.894531 22.796875 -4.1875 C 16.898438 -7.476562 12.21875 -12.070312 8.75 -17.96875 C 5.28125 -23.875 3.546875 -30.507812 3.546875 -37.875 C 3.546875 -45.25 5.28125 -51.867188 8.75 -57.734375 C 12.21875 -63.597656 16.898438 -68.175781 22.796875 -71.46875 C 28.703125 -74.757812 35.195312 -76.40625 42.28125 -76.40625 C 49.363281 -76.40625 55.851562 -74.757812 61.75 -71.46875 C 67.65625 -68.175781 72.304688 -63.597656 75.703125 -57.734375 C 79.109375 -51.867188 80.8125 -45.25 80.8125 -37.875 C 80.8125 -31.4375 79.503906 -25.550781 76.890625 -20.21875 C 74.273438 -14.894531 70.644531 -10.476562 66 -6.96875 L 82.515625 12.875 Z M 22.328125 -37.875 C 22.328125 -31.226562 24.128906 -25.914062 27.734375 -21.9375 C 31.347656 -17.96875 36.195312 -15.984375 42.28125 -15.984375 C 48.289062 -15.984375 53.101562 -17.988281 56.71875 -22 C 60.332031 -26.007812 62.140625 -31.300781 62.140625 -37.875 C 62.140625 -44.53125 60.332031 -49.84375 56.71875 -53.8125 C 53.101562 -57.78125 48.289062 -59.765625 42.28125 -59.765625 C 36.195312 -59.765625 31.347656 -57.796875 27.734375 -53.859375 C 24.128906 -49.929688 22.328125 -44.601562 22.328125 -37.875 Z M 22.328125 -37.875 "/></g></g></g><g fill="#191919" fill-opacity="1"><g transform="translate(608.277518, 113.283955)"><g/></g></g></g></g></svg>